# xmcd
#
# Track frame offsets:
#	150
#	8042
#	32395
#	59867
#	69375
#	97105
#	110087
#	132442
#	151785
#	177287
#	192190
#	206810
#	227785
#
# Disc length: 3194 seconds
#
# Revision: 1
# Processed by: cddbd v1.5.1PL0 Copyright (c) Steve Scherf et al.
# Submitted via: CDex 1.50Beta5
#
DISCID=b50c780d
DTITLE=さまざまなアーティスト - CINEMA MUSIC
DYEAR=1900
DGENRE=Soundtrack
TTITLE0=ベルリンフィルハーモニー管弦楽団/ツァラトゥストラウスはかく語りき
TTITLE1=ロンドン交響楽団/スターウォーズ
TTITLE2=ジェームズ ホーナー/コクーン
TTITLE3=マントバーニ オーケストラ/80日間世界一周
TTITLE4=ロンドン交響楽団/レイダース失われたアーク
TTITLE5=ロンドン交響楽団/エニシング・ゴーズ〜インディージョーンズ
TTITLE6=バンゲリス/ブレードランナー
TTITLE7=アニモーション/ルーム・トゥ・ムーブ〜花嫁はエイリアン
TTITLE8=シネマ・サウンド・オーケストラ/ラストエンペラー
TTITLE9=フィルム・シンフォニック・オーケストラ/未知との遭遇
TTITLE10=シネマ・サウンド・オーケストラ/E,T,
TTITLE11=坂本龍一/メリー・クリスマス・ミスター・ローレンス
TTITLE12=ロイヤルフィルハーモニック・オーケストラ/スプラッシュ
EXTD=
EXTT0=
EXTT1=
EXTT2=
EXTT3=
EXTT4=
EXTT5=
EXTT6=
EXTT7=
EXTT8=
EXTT9=
EXTT10=
EXTT11=
EXTT12=
PLAYORDER=
